# xmcd
#
# Track frame offsets:
#	150
#	14428
#	27076
#	41974
#	57542
#	74397
#	89336
#	107448
#	121659
#	137015
#	151789
#	171236
#	184910
#	196261
#	211964
#	227332
#	246682
#	260487
#	276457
#	291850
#
# Disc length: 4159 seconds
#
# Revision: 1
# Processed by: cddbd v1.5.2PL0 Copyright (c) Steve Scherf et al.
# Submitted via: audiograbber 1.83.01
#
DISCID=27103d14
DTITLE=Jonny Hill - 40 Jahre Ruf Teddybär 1-4 - 40 unvergessene Lieder [2CD] (2
DTITLE=019) [CD 2)
DYEAR=2019
DGENRE=Deutsch Country
TTITLE0=Wer wie ich viel unterwegs war
TTITLE1=Da sind so viele Fragen (Neuaufnahme)
TTITLE2=Für immer jung
TTITLE3=Mehr als tausend kleine Sünden
TTITLE4=Rosen für Mama
TTITLE5=Das Schicksal
TTITLE6=Jeden Abend um halb acht
TTITLE7=Ich wär ohne dich verloren (Nashville) (Neuaufnahme)
TTITLE8=Wo möchtest du sein
TTITLE9=Eine wie du
TTITLE10=Der alte Mann
TTITLE11=Ein paar Jahre mehr (Nashville)
TTITLE12=Lichter auf den Hügeln (Nashville) (Neuaufnahme)
TTITLE13=Es war'n zu wenig Rosen
TTITLE14=Ich brauch dich
TTITLE15=Hallo Teddybär (Neuaufnahme)
TTITLE16=Suchst du Gold (Country Version) (Neuaufnahme)
TTITLE17=Warum musste alle so enden?
TTITLE18=Und wieder fahr ich weg von dir
TTITLE19=Teddybär ich danke dir
EXTD=2019\n\nMARO\n
EXTT0=
EXTT1=
EXTT2=
EXTT3=
EXTT4=
EXTT5=
EXTT6=
EXTT7=
EXTT8=
EXTT9=
EXTT10=
EXTT11=
EXTT12=
EXTT13=
EXTT14=
EXTT15=
EXTT16=
EXTT17=
EXTT18=
EXTT19=
PLAYORDER=
